<svg width="32" height="32" viewBox="0 0 32 32" fill="none" xmlns="http://www.w3.org/2000/svg">
<rect x="0.64" y="0.64" width="30.72" height="30.72" rx="2.56" fill="#161616"/>
<rect x="0.64" y="0.64" width="30.72" height="30.72" rx="2.56" stroke="white" stroke-width="1.28"/>
<path d="M6.76074 20.9983H8.93612L12.2564 13.4416L15.4622 20.9983H17.6376L13.0579 10.3503H11.455L6.76074 20.9983Z" fill="white"/>
<path d="M21.9884 20.9984H20.042V10.4648H21.9884V20.9984Z" fill="white"/>
<path d="M6.77832 23.2306V22.3542H6.87096V23.2306H6.77832Z" fill="white"/>
<path d="M8.5708 23.2306V22.3542H8.64717L9.25187 23.1154H9.2118V22.3542H9.3032V23.2306H9.22683L8.62338 22.4694H8.66345V23.2306H8.5708Z" fill="white"/>
<path d="M11.134 23.2381C11.0681 23.2381 11.0071 23.2273 10.9512 23.2055C10.8953 23.183 10.8469 23.1517 10.806 23.1116C10.7651 23.0716 10.7329 23.0245 10.7096 22.9702C10.687 22.9158 10.6758 22.8567 10.6758 22.7924C10.6758 22.728 10.687 22.6689 10.7096 22.6146C10.7329 22.5603 10.7651 22.5132 10.806 22.4731C10.8477 22.4331 10.8966 22.4023 10.9525 22.3805C11.0084 22.3579 11.0693 22.3467 11.1352 22.3467C11.1987 22.3467 11.2584 22.3574 11.3143 22.3792C11.3702 22.4 11.4174 22.4318 11.4557 22.4744L11.3969 22.5332C11.361 22.4964 11.3214 22.4701 11.278 22.4543C11.2346 22.4376 11.1878 22.4293 11.1378 22.4293C11.0852 22.4293 11.0363 22.4386 10.9913 22.4568C10.9462 22.4744 10.907 22.4999 10.8736 22.5332C10.8402 22.5658 10.8139 22.6041 10.7947 22.6484C10.7764 22.6917 10.7672 22.7398 10.7672 22.7924C10.7672 22.845 10.7764 22.8933 10.7947 22.9376C10.8139 22.9809 10.8402 23.0195 10.8736 23.0528C10.907 23.0853 10.9462 23.1109 10.9913 23.1292C11.0363 23.1467 11.0852 23.1554 11.1378 23.1554C11.1878 23.1554 11.2346 23.1472 11.278 23.1304C11.3214 23.1136 11.361 23.0871 11.3969 23.0503L11.4557 23.1091C11.4174 23.1517 11.3702 23.1837 11.3143 23.2055C11.2584 23.2273 11.1983 23.2381 11.134 23.2381Z" fill="white"/>
<path d="M13.3708 23.2381C13.259 23.2381 13.1709 23.2061 13.1067 23.1417C13.0424 23.0774 13.0103 22.9822 13.0103 22.8563V22.3542H13.1029V22.8525C13.1029 22.9559 13.1263 23.0323 13.173 23.0816C13.2198 23.131 13.2857 23.1555 13.3708 23.1555C13.4568 23.1555 13.5232 23.131 13.5699 23.0816C13.6166 23.0323 13.64 22.9559 13.64 22.8525V22.3542H13.7301V22.8563C13.7301 22.9822 13.698 23.0774 13.6337 23.1417C13.5703 23.2061 13.4827 23.2381 13.3708 23.2381Z" fill="white"/>
<path d="M15.3237 23.2306V22.3542H15.7018C15.7995 22.3542 15.875 22.3738 15.9284 22.4131C15.9827 22.4524 16.0098 22.5077 16.0098 22.5796C16.0098 22.6272 15.9985 22.6672 15.976 22.6998C15.9543 22.7323 15.9242 22.7569 15.8859 22.7737C15.8483 22.7904 15.807 22.7987 15.7619 22.7987L15.7832 22.7686C15.8391 22.7686 15.8871 22.7774 15.9272 22.7949C15.9681 22.8117 15.9998 22.837 16.0223 22.8713C16.0449 22.9046 16.0561 22.9464 16.0561 22.9965C16.0561 23.0709 16.0286 23.1285 15.9735 23.1693C15.9192 23.2101 15.837 23.2306 15.7269 23.2306H15.3237ZM15.4164 23.1542H15.7256C15.8024 23.1542 15.8612 23.1412 15.9021 23.1154C15.943 23.0886 15.9635 23.0466 15.9635 22.989C15.9635 22.9322 15.943 22.8908 15.9021 22.865C15.8612 22.8383 15.8024 22.825 15.7256 22.825H15.4064V22.7486H15.6956C15.7657 22.7486 15.8199 22.7353 15.8583 22.7086C15.8976 22.6818 15.9172 22.6422 15.9172 22.5896C15.9172 22.5363 15.8976 22.4965 15.8583 22.4707C15.8199 22.4439 15.7657 22.4306 15.6956 22.4306H15.4164V23.1542Z" fill="white"/>
<path d="M17.6149 22.7461H18.0781V22.825H17.6149V22.7461ZM17.6249 23.1505H18.1519V23.2306H17.5322V22.3542H18.1332V22.4344H17.6249V23.1505Z" fill="white"/>
<path d="M19.4263 23.2306L19.8269 22.3542H19.9183L20.3189 23.2306H20.2213L19.8532 22.4081H19.8907L19.5227 23.2306H19.4263ZM19.584 22.9965L19.6116 22.9214H20.1211L20.1486 22.9965H19.584Z" fill="white"/>
<path d="M21.9038 23.2306V22.3542H21.9965V23.2306H21.9038Z" fill="white"/>
<path d="M22.9858 10.9654V10.5982H24.6191C24.8425 10.3693 24.8197 10.2502 24.6191 10.0473H23.4396V9.68007H24.6191C24.8365 9.43824 24.8222 9.31498 24.6191 9.12921H22.9858V8.76196H24.8007C25.2772 9.06586 25.3616 9.32382 25.0729 9.86368C25.3553 10.4591 25.2374 10.6737 24.8007 10.9654H22.9858Z" fill="white"/>
</svg>
